<svg width="18" height="16" viewBox="0 0 18 16" fill="none" xmlns="http://www.w3.org/2000/svg">
<path d="M14.8327 3H12.3327V2.16667C12.3327 1.72464 12.1571 1.30072 11.8445 0.988155C11.532 0.675595 11.108 0.5 10.666 0.5H7.33268C6.89066 0.5 6.46673 0.675595 6.15417 0.988155C5.84161 1.30072 5.66602 1.72464 5.66602 2.16667V3H3.16602C2.50297 3 1.86709 3.26339 1.39825 3.73223C0.929408 4.20107 0.666016 4.83696 0.666016 5.5V13C0.666016 13.663 0.929408 14.2989 1.39825 14.7678C1.86709 15.2366 2.50297 15.5 3.16602 15.5H14.8327C15.4957 15.5 16.1316 15.2366 16.6005 14.7678C17.0693 14.2989 17.3327 13.663 17.3327 13V5.5C17.3327 4.83696 17.0693 4.20107 16.6005 3.73223C16.1316 3.26339 15.4957 3 14.8327 3ZM7.33268 2.16667H10.666V3H7.33268V2.16667ZM15.666 13C15.666 13.221 15.5782 13.433 15.4219 13.5893C15.2657 13.7455 15.0537 13.8333 14.8327 13.8333H3.16602C2.945 13.8333 2.73304 13.7455 2.57676 13.5893C2.42048 13.433 2.33268 13.221 2.33268 13V8.325L6.23268 9.66667C6.32117 9.67867 6.41087 9.67867 6.49935 9.66667H11.4993C11.5897 9.665 11.6794 9.65098 11.766 9.625L15.666 8.325V13ZM15.666 6.56667L11.366 8H6.63268L2.33268 6.56667V5.5C2.33268 5.27899 2.42048 5.06702 2.57676 4.91074C2.73304 4.75446 2.945 4.66667 3.16602 4.66667H14.8327C15.0537 4.66667 15.2657 4.75446 15.4219 4.91074C15.5782 5.06702 15.666 5.27899 15.666 5.5V6.56667Z" fill="#8D9CBD"/>
</svg>
